<svg width="281" height="59" viewBox="0 0 281 59" fill="none" xmlns="http://www.w3.org/2000/svg">
<path d="M82.6534 46H77.9943L88.4631 16.9091H93.5341L104.003 46H99.3438L91.1193 22.1932H90.892L82.6534 46ZM83.4347 34.608H98.5483V38.3011H83.4347V34.608ZM112.593 16.9091V46H108.204V16.9091H112.593ZM118.985 46V16.9091H129.354C131.608 16.9091 133.478 17.2973 134.965 18.0739C136.461 18.8504 137.579 19.9252 138.317 21.2983C139.056 22.6619 139.425 24.2386 139.425 26.0284C139.425 27.8087 139.051 29.3759 138.303 30.7301C137.565 32.0748 136.447 33.1212 134.951 33.8693C133.464 34.6174 131.594 34.9915 129.34 34.9915H121.485V31.2131H128.942C130.363 31.2131 131.518 31.0095 132.408 30.6023C133.308 30.1951 133.966 29.6032 134.383 28.8267C134.799 28.0502 135.008 27.1174 135.008 26.0284C135.008 24.9299 134.795 23.9782 134.369 23.1733C133.952 22.3684 133.294 21.7528 132.394 21.3267C131.504 20.8911 130.335 20.6733 128.886 20.6733H123.374V46H118.985ZM133.346 32.875L140.533 46H135.533L128.488 32.875H133.346ZM171.219 24.5511C171.067 23.2064 170.442 22.1648 169.344 21.4261C168.245 20.678 166.863 20.304 165.196 20.304C164.003 20.304 162.971 20.4934 162.099 20.8722C161.228 21.2415 160.551 21.7528 160.068 22.4062C159.595 23.0502 159.358 23.7841 159.358 24.608C159.358 25.2992 159.519 25.8958 159.841 26.3977C160.172 26.8996 160.603 27.321 161.134 27.6619C161.673 27.9934 162.251 28.2727 162.866 28.5C163.482 28.7178 164.074 28.8977 164.642 29.0398L167.483 29.7784C168.411 30.0057 169.363 30.3134 170.338 30.7017C171.313 31.09 172.218 31.6013 173.051 32.2358C173.884 32.8703 174.557 33.6562 175.068 34.5938C175.589 35.5312 175.849 36.6534 175.849 37.9602C175.849 39.608 175.423 41.071 174.571 42.3494C173.728 43.6278 172.502 44.6364 170.892 45.375C169.292 46.1136 167.355 46.483 165.082 46.483C162.904 46.483 161.02 46.1373 159.429 45.446C157.838 44.7547 156.593 43.7746 155.693 42.5057C154.794 41.2273 154.296 39.7121 154.202 37.9602H158.605C158.69 39.0114 159.031 39.8873 159.628 40.5881C160.234 41.2794 161.006 41.7955 161.943 42.1364C162.89 42.4678 163.927 42.6335 165.054 42.6335C166.295 42.6335 167.398 42.4394 168.364 42.0511C169.339 41.6534 170.106 41.1042 170.665 40.4034C171.223 39.6932 171.503 38.8646 171.503 37.9176C171.503 37.0559 171.257 36.3504 170.764 35.8011C170.281 35.2519 169.623 34.7973 168.79 34.4375C167.966 34.0777 167.033 33.7604 165.991 33.4858L162.554 32.5483C160.224 31.9138 158.378 30.9811 157.014 29.75C155.66 28.5189 154.983 26.8902 154.983 24.8636C154.983 23.1875 155.438 21.7244 156.347 20.4744C157.256 19.2244 158.487 18.2538 160.04 17.5625C161.593 16.8617 163.345 16.5114 165.295 16.5114C167.265 16.5114 169.003 16.857 170.509 17.5483C172.024 18.2396 173.217 19.1913 174.088 20.4034C174.959 21.6061 175.414 22.9886 175.452 24.5511H171.219ZM179.66 20.6875V16.9091H202.174V20.6875H193.097V46H188.722V20.6875H179.66ZM231.169 31.4545C231.169 34.5606 230.601 37.2311 229.464 39.4659C228.328 41.6913 226.77 43.4053 224.791 44.608C222.821 45.8011 220.582 46.3977 218.072 46.3977C215.554 46.3977 213.304 45.8011 211.325 44.608C209.356 43.4053 207.803 41.6866 206.666 39.4517C205.53 37.2169 204.962 34.5511 204.962 31.4545C204.962 28.3485 205.53 25.6828 206.666 23.4574C207.803 21.2225 209.356 19.5085 211.325 18.3153C213.304 17.1127 215.554 16.5114 218.072 16.5114C220.582 16.5114 222.821 17.1127 224.791 18.3153C226.77 19.5085 228.328 21.2225 229.464 23.4574C230.601 25.6828 231.169 28.3485 231.169 31.4545ZM226.822 31.4545C226.822 29.0871 226.439 27.0937 225.672 25.4744C224.914 23.8456 223.873 22.6146 222.547 21.7812C221.231 20.9384 219.739 20.517 218.072 20.517C216.396 20.517 214.9 20.9384 213.584 21.7812C212.268 22.6146 211.226 23.8456 210.459 25.4744C209.701 27.0937 209.322 29.0871 209.322 31.4545C209.322 33.822 209.701 35.8201 210.459 37.4489C211.226 39.0682 212.268 40.2992 213.584 41.142C214.9 41.9754 216.396 42.392 218.072 42.392C219.739 42.392 221.231 41.9754 222.547 41.142C223.873 40.2992 224.914 39.0682 225.672 37.4489C226.439 35.8201 226.822 33.822 226.822 31.4545ZM236.641 46V16.9091H247.011C249.264 16.9091 251.135 17.2973 252.621 18.0739C254.118 18.8504 255.235 19.9252 255.974 21.2983C256.712 22.6619 257.082 24.2386 257.082 26.0284C257.082 27.8087 256.708 29.3759 255.96 30.7301C255.221 32.0748 254.103 33.1212 252.607 33.8693C251.121 34.6174 249.25 34.9915 246.996 34.9915H239.141V31.2131H246.599C248.019 31.2131 249.174 31.0095 250.065 30.6023C250.964 30.1951 251.622 29.6032 252.039 28.8267C252.456 28.0502 252.664 27.1174 252.664 26.0284C252.664 24.9299 252.451 23.9782 252.025 23.1733C251.608 22.3684 250.95 21.7528 250.05 21.3267C249.16 20.8911 247.991 20.6733 246.542 20.6733H241.031V46H236.641ZM251.002 32.875L258.19 46H253.19L246.144 32.875H251.002ZM262.423 46V16.9091H280.661V20.6875H266.812V29.5511H279.71V33.3153H266.812V42.2216H280.832V46H262.423Z" fill="#13111C"/>
<path d="M58.25 55C60.818 55 62.9 53.2874 62.9 51.175C62.9 49.0626 60.818 47.35 58.25 47.35C55.682 47.35 53.6 49.0626 53.6 51.175C53.6 53.2874 55.682 55 58.25 55Z" fill="#ECECEC" stroke="#A6A6A6" stroke-width="6.471" stroke-linecap="round" stroke-linejoin="round"/>
<path d="M27.25 55C29.818 55 31.9 53.2874 31.9 51.175C31.9 49.0626 29.818 47.35 27.25 47.35C24.6819 47.35 22.6 49.0626 22.6 51.175C22.6 53.2874 24.6819 55 27.25 55Z" fill="#ECECEC" stroke="#A6A6A6" stroke-width="6.471" stroke-linecap="round" stroke-linejoin="round"/>
<path d="M13.3 9.1H66L59.8 37.15H19.5L13.3 9.1ZM13.3 9.1C12.7833 7.39999 10.2 4 4 4Z" fill="#ECECEC"/>
<path d="M13.3 9.1H66L59.8 37.15H19.5L13.3 9.1ZM13.3 9.1C12.7833 7.39999 10.2 4 4 4" stroke="#A6A6A6" stroke-width="6.471" stroke-linecap="round" stroke-linejoin="round"/>
<path d="M59.8 37.15H19.5H14.0154C8.48403 37.15 5.55 39.1421 5.55 42.25C5.55 45.3579 8.48403 47.35 14.0154 47.35H58.25" fill="#ECECEC"/>
<path d="M59.8 37.15H19.5H14.0154C8.48403 37.15 5.55 39.1421 5.55 42.25C5.55 45.3579 8.48403 47.35 14.0154 47.35H58.25" stroke="#A6A6A6" stroke-width="6.471" stroke-linecap="round" stroke-linejoin="round"/>
</svg>
